<svg xmlns="http://www.w3.org/2000/svg" version="1.1" xmlns:xlink="http://www.w3.org/1999/xlink" xmlns:svgjs="http://svgjs.dev/svgjs" width="64" height="64"><svg xmlns="http://www.w3.org/2000/svg" viewBox="0 0 64 64"><defs><style>.cls-1,.cls-13{fill:#fff;}.cls-1,.cls-2{stroke:#006064;}.cls-1,.cls-11,.cls-12,.cls-6,.cls-7,.cls-9{stroke-linecap:round;}.cls-1,.cls-11,.cls-12,.cls-6,.cls-9{stroke-linejoin:round;}.cls-1,.cls-11,.cls-12,.cls-13,.cls-2,.cls-6,.cls-7{stroke-width:2px;}.cls-2{fill:#006064;}.cls-13,.cls-2,.cls-7{stroke-miterlimit:10;}.cls-3{fill:#ff927d;}.cls-4{fill:#ffd400;}.cls-5{fill:#9af43b;}.cls-6{fill:#ffb74e;stroke:#ffb74e;}.cls-7{fill:#eaca81;stroke:#eaca81;}.cls-8{fill:#ffe082;}.cls-11,.cls-12,.cls-9{fill:none;}.cls-9{stroke:#ff927d;stroke-width:3px;}.cls-10{fill:#4f4f4f;}.cls-11{stroke:#6989ff;}.cls-12{stroke:#45d821;}.cls-13{stroke:#fff;opacity:0.1;}</style></defs><title>browser</title><g id="SvgjsG1001"><path class="cls-1" d="M4.31,11H59.69A2.31,2.31,0,0,1,62,13.31V18a0,0,0,0,1,0,0H2a0,0,0,0,1,0,0V13.31A2.31,2.31,0,0,1,4.31,11Z"></path><path class="cls-2" d="M2,18H62a0,0,0,0,1,0,0V54.69A2.31,2.31,0,0,1,59.69,57H4.31A2.31,2.31,0,0,1,2,54.69V18A0,0,0,0,1,2,18Z"></path><circle class="cls-3" cx="5.5" cy="14.5" r="1.5"></circle><circle class="cls-4" cx="9.5" cy="14.5" r="1.5"></circle><circle class="cls-5" cx="13.5" cy="14.5" r="1.5"></circle><path class="cls-6" d="M36.77,27H51.23A5.77,5.77,0,0,1,57,32.77V57a0,0,0,0,1,0,0H31a0,0,0,0,1,0,0V32.77A5.77,5.77,0,0,1,36.77,27Z"></path><rect class="cls-7" x="41" y="50" width="6" height="7"></rect><path class="cls-8" d="M47,31.94s0,0,0,.06c0,1.66-2.24,3-5,3s-5-1.34-5-3H34V42.06C34,48.1,38.48,53,44,53s10-4.9,10-10.94V31.91Z"></path><line class="cls-9" x1="43" y1="46" x2="45" y2="46"></line><circle class="cls-10" cx="40" cy="40" r="1"></circle><circle class="cls-10" cx="48" cy="40" r="1"></circle><line class="cls-11" x1="7" y1="25" x2="24" y2="25"></line><line class="cls-12" x1="7" y1="39" x2="20" y2="39"></line><line class="cls-11" x1="7" y1="44" x2="20" y2="44"></line><line class="cls-12" x1="7" y1="49" x2="20" y2="49"></line><path class="cls-13" d="M2,52v2.69A2.31,2.31,0,0,0,4.31,57H59.69A2.31,2.31,0,0,0,62,54.69V52Z"></path><line class="cls-11" x1="7" y1="30" x2="14" y2="30"></line><line class="cls-12" x1="18" y1="30" x2="27" y2="30"></line></g></svg><style>@media (prefers-color-scheme: light) { :root { filter: none; } }
@media (prefers-color-scheme: dark) { :root { filter: none; } }
</style></svg>